<?xml version="1.0" encoding="UTF-8" standalone="no"?>
<!DOCTYPE svg PUBLIC "-//W3C//DTD SVG 1.1//EN" "http://www.w3.org/Graphics/SVG/1.1/DTD/svg11.dtd">
<svg width="100%" height="100%" viewBox="0 0 2000 2000" version="1.1" xmlns="http://www.w3.org/2000/svg" xmlns:xlink="http://www.w3.org/1999/xlink" xml:space="preserve" xmlns:serif="http://www.serif.com/" style="fill-rule:evenodd;clip-rule:evenodd;stroke-linejoin:round;stroke-miterlimit:2;">
    <g transform="matrix(1.288148,0,0,1.288148,1000,1000)">
        <g transform="matrix(1,0,0,1,-734.875,-492.645833)">
            <g transform="matrix(4.166667,0,0,4.166667,0,0)">
                <path d="M197.3,102.8C212.82,91.21 225.78,78.69 234.22,66.41C258.81,30.62 235.72,10.44 182.65,21.33C142.15,29.63 95.87,53.66 65.31,80.48C64.12,81.52 62.38,80.14 63.13,78.75L105.11,0.75C105.35,0.29 105.83,0 106.36,0L338.13,0C350.82,0 355.16,10.49 351.46,20.54C341.58,47.36 243.88,92.54 197.3,102.8Z" style="fill:rgb(42,64,122);fill-rule:nonzero;"/>
            </g>
            <g transform="matrix(4.166667,0,0,4.166667,0,0)">
                <path d="M155.06,133.67C139.54,145.26 126.58,157.78 118.14,170.06C93.55,205.85 116.64,226.03 169.71,215.14C210.21,206.84 256.49,182.81 287.05,155.99C288.24,154.95 289.98,156.33 289.23,157.72L247.25,235.72C247.01,236.18 246.53,236.47 246,236.47L17.93,236.47C5.24,236.47 -2.79,225.98 0.91,215.93C10.79,189.11 108.49,143.93 155.07,133.67L155.06,133.67Z" style="fill:rgb(42,64,122);fill-rule:nonzero;"/>
            </g>
            <g transform="matrix(4.166667,0,0,4.166667,0,0)">
                <path d="M206.47,112.62L258.63,117.39C259.11,117.43 259.11,118.13 258.63,118.17L206.47,122.94C193.01,124.17 182.34,134.84 181.11,148.3L176.34,200.46C176.3,200.94 175.6,200.94 175.56,200.46L170.79,148.3C169.56,134.84 158.89,124.17 145.43,122.94L93.27,118.17C92.79,118.13 92.79,117.43 93.27,117.39L145.43,112.62C158.89,111.39 169.56,100.72 170.79,87.26L175.56,35.1C175.6,34.62 176.3,34.62 176.34,35.1L181.11,87.26C182.34,100.72 193.01,111.39 206.47,112.62Z" style="fill:rgb(42,64,122);fill-rule:nonzero;"/>
            </g>
        </g>
    </g>
</svg>
